<?xml version="1.0" encoding="UTF-8" standalone="no"?>
<svg
   xmlns:dc="http://purl.org/dc/elements/1.1/"
   xmlns:cc="http://creativecommons.org/ns#"
   xmlns:rdf="http://www.w3.org/1999/02/22-rdf-syntax-ns#"
   xmlns:svg="http://www.w3.org/2000/svg"
   xmlns="http://www.w3.org/2000/svg"
   xmlns:sodipodi="http://sodipodi.sourceforge.net/DTD/sodipodi-0.dtd"
   xmlns:inkscape="http://www.inkscape.org/namespaces/inkscape"
   width="481.8897pt"
   height="340.1574pt"
   viewBox="0 0 521.8897 340.1574"
   version="1.1"
   id="svg2"
   inkscape:version="0.91 r13725"
   sodipodi:docname="Haskell.svg">
  <metadata
     id="metadata22">
    <rdf:RDF>
      <cc:Work
         rdf:about="">
        <dc:format>image/svg+xml</dc:format>
        <dc:type
           rdf:resource="http://purl.org/dc/dcmitype/StillImage" />
        <dc:title></dc:title>
      </cc:Work>
    </rdf:RDF>
  </metadata>
  <sodipodi:namedview
     pagecolor="#ffffff"
     bordercolor="#666666"
     borderopacity="1"
     objecttolerance="10"
     gridtolerance="10"
     guidetolerance="10"
     inkscape:pageopacity="0"
     inkscape:pageshadow="2"
     inkscape:window-width="1910"
     inkscape:window-height="1026"
     id="namedview20"
     showgrid="false"
     inkscape:zoom="1.8515648"
     inkscape:cx="302.26124"
     inkscape:cy="212.59838"
     inkscape:window-x="0"
     inkscape:window-y="0"
     inkscape:window-maximized="1"
     inkscape:current-layer="surface0"
     showborder="false" />
  <defs
     id="defs4">
    <clipPath
       id="clip1">
      <path
         d="M 0 340.15625 L 481.890625 340.15625 L 481.890625 0 L 0 0 L 0 340.15625 Z M 0 340.15625 "
         id="path7" />
    </clipPath>
  </defs>
  <g
     id="surface0">
    <path
       inkscape:connector-curvature="0"
       id="path12"
       d="M 0,340.15625 113.38672,170.07812 0,0 85.039062,0 198.42578,170.07812 85.039062,340.15625 0,340.15625 Z m 0,0"
       style="clip-rule:nonzero;fill:#91b9d7;fill-opacity:1;fill-rule:nonzero;stroke:none" />
    <path
       inkscape:connector-curvature="0"
       id="path14"
       d="M 113.38672,340.15625 226.77344,170.07812 113.38672,0 l 85.03906,0 226.76953,340.15625 -85.03906,0 -70.86328,-106.29688 -70.86719,106.29688 -85.03906,0 z m 0,0"
       style="clip-rule:nonzero;fill:#91b9d7;fill-opacity:1;fill-rule:nonzero;stroke:none" />
    <path
       inkscape:connector-curvature="0"
       id="path16"
       d="m 387.40234,240.94531 -37.79297,-56.6914 132.28125,-0.004 0,56.69531 -94.48828,0 z m 0,0"
       style="clip-rule:nonzero;fill:#91b9d7;fill-opacity:1;fill-rule:nonzero;stroke:none" />
    <path
       inkscape:connector-curvature="0"
       id="path18"
       d="m 330.71094,155.90625 -37.79688,-56.691406 188.97656,-0.0039 0,56.695316 -151.17968,0 z m 0,0"
       style="clip-rule:nonzero;fill:#91b9d7;fill-opacity:1;fill-rule:nonzero;stroke:none" />
  </g>
</svg>
